<?xml version="1.0" standalone="no"?>
<!DOCTYPE svg PUBLIC "-//W3C//DTD SVG 20010904//EN"
 "http://www.w3.org/TR/2001/REC-SVG-20010904/DTD/svg10.dtd">
<svg version="1.0" xmlns="http://www.w3.org/2000/svg"
 width="612.000000pt" height="612.000000pt" viewBox="0 0 612.000000 612.000000"
 preserveAspectRatio="xMidYMid meet">
<metadata>
Created by potrace 1.14, written by Peter Selinger 2001-2017
</metadata>
<g transform="translate(0.000000,612.000000) scale(0.100000,-0.100000)"
fill="#000000" stroke="none">
<path d="M3590 3913 c-36 -7 -77 -15 -92 -17 -15 -3 -36 -10 -46 -15 -11 -6
-22 -8 -24 -6 -5 6 -100 -34 -108 -45 -3 -3 -29 -19 -58 -35 -56 -30 -156
-121 -214 -195 -44 -57 -88 -136 -122 -222 -32 -82 -33 -104 -3 -110 50 -8 64
1 77 50 37 137 189 337 298 393 15 8 29 17 32 20 9 11 125 62 160 71 65 16
205 34 255 32 137 -5 291 -59 400 -139 72 -53 165 -146 165 -163 0 -6 4 -12 8
-14 12 -4 86 -138 77 -138 -4 0 -1 -8 6 -17 13 -17 13 -17 -6 -1 -12 10 -41
18 -73 19 -38 2 -51 6 -48 16 7 16 -54 96 -112 148 -25 22 -55 49 -67 60 -51
48 -240 121 -315 123 -8 1 -41 1 -72 2 -31 1 -61 -1 -67 -5 -6 -3 -34 -8 -62
-10 -70 -6 -219 -78 -292 -143 -63 -54 -125 -132 -160 -197 -12 -22 -21 -42
-22 -45 0 -3 -7 -16 -14 -29 -16 -29 -5 -38 46 -37 36 1 39 4 73 70 48 95 147
192 242 239 94 46 173 64 273 61 155 -4 288 -63 400 -178 57 -59 66 -64 99
-61 23 3 34 0 30 -6 -3 -6 -13 -8 -21 -5 -8 3 -24 -4 -36 -17 -12 -12 -100
-151 -196 -309 -168 -279 -174 -288 -205 -288 -17 0 -514 -1 -1105 -3 -1072
-2 -1074 -2 -1087 -23 -12 -17 -12 -23 0 -39 13 -18 53 -18 1135 -17 796 1
1126 4 1136 12 7 6 35 48 62 93 28 45 100 165 162 266 61 102 111 187 111 191
0 3 9 12 19 20 11 7 18 16 16 20 -2 3 26 7 63 8 54 1 70 5 84 22 18 23 20 21
38 -34 43 -134 25 -359 -39 -498 -74 -158 -217 -302 -369 -370 -52 -24 -47
-21 -122 -44 -60 -18 -259 -25 -320 -11 -19 4 -44 9 -55 11 -11 1 -30 8 -43
15 -12 6 -22 9 -22 6 0 -3 -28 9 -62 27 -54 27 -74 32 -140 33 -43 0 -78 -3
-78 -7 0 -5 30 -28 68 -52 284 -184 641 -185 922 -1 107 69 225 197 277 300
21 42 67 155 77 190 34 123 23 384 -19 465 -8 15 -11 30 -8 34 4 3 1 6 -6 6
-7 0 -10 3 -7 8 5 9 -69 147 -104 193 -88 115 -183 192 -309 252 -80 38 -126
54 -181 62 -14 2 -41 7 -60 11 -61 12 -173 11 -240 -3z"/>
<path d="M4264 3275 c-12 -9 -12 -20 0 -84 52 -273 -78 -525 -328 -636 -29
-13 -66 -26 -82 -28 -16 -3 -65 -19 -110 -35 -100 -36 -196 -40 -287 -12 -34
11 -63 18 -64 16 -7 -7 118 -57 168 -67 71 -15 192 -18 249 -7 25 5 54 11 65
12 41 6 176 69 222 104 121 92 231 247 244 344 0 4 7 28 14 52 24 79 10 315
-21 345 -10 10 -55 8 -70 -4z"/>
<path d="M3221 3259 c-25 -10 -32 -33 -17 -55 12 -16 42 -17 383 -17 204 0
375 3 382 7 13 9 14 35 1 56 -8 12 -63 15 -370 15 -198 0 -369 -3 -379 -6z"/>
<path d="M1602 3167 c-5 -6 -8 -23 -5 -37 2 -14 5 -60 6 -103 2 -58 6 -81 18
-87 8 -5 20 -6 26 -2 13 8 22 216 10 228 -13 13 -45 14 -55 1z"/>
<path d="M2243 3167 c-4 -6 -9 -37 -9 -67 -2 -98 -3 -99 -24 -97 -14 1 -19 8
-18 27 3 44 -12 78 -40 89 -37 13 -82 9 -111 -11 -43 -30 -3 -73 44 -48 39 21
70 -19 39 -50 -12 -12 -81 -16 -111 -6 -16 5 -23 15 -23 32 0 30 -51 64 -95
64 -35 0 -85 -41 -85 -70 0 -23 -13 -32 -34 -24 -11 4 -14 17 -12 49 4 46 -4
55 -45 55 -19 0 -20 -6 -18 -90 1 -61 -2 -95 -11 -105 -11 -13 -11 -19 3 -32
20 -20 43 -11 65 27 16 28 19 29 67 24 28 -3 64 -5 80 -5 17 1 99 3 184 5 84
3 164 7 177 10 29 8 36 42 32 150 -3 73 -5 79 -25 82 -12 2 -26 -2 -30 -9z
m-315 -155 c4 -28 -24 -40 -45 -19 -21 21 -9 49 19 45 15 -2 24 -11 26 -26z"/>
<path d="M2347 3168 c-10 -5 -15 -14 -11 -19 3 -6 7 -53 8 -106 3 -99 13 -121
46 -103 14 8 17 26 16 116 -1 98 -3 108 -22 114 -11 5 -28 4 -37 -2z"/>
<path d="M2640 3171 c-25 -6 -25 -7 -25 -111 1 -121 -1 -130 -25 -130 -30 0
-48 26 -45 64 3 28 -1 37 -16 41 -31 10 -46 -10 -44 -58 3 -57 19 -86 57 -101
38 -16 104 -5 123 20 10 14 14 53 14 146 -1 71 -4 129 -7 131 -4 2 -18 1 -32
-2z"/>
<path d="M3232 3158 c-7 -7 -12 -19 -12 -28 0 -39 14 -40 365 -40 377 0 391 2
367 54 l-12 26 -348 0 c-257 0 -351 -3 -360 -12z"/>
<path d="M2731 3106 c-26 -28 -34 -83 -14 -111 7 -11 13 -27 13 -37 0 -14 9
-18 38 -19 20 -1 41 -1 47 1 5 1 2 -7 -7 -17 -14 -15 -14 -21 -4 -35 20 -27
42 -22 65 15 23 37 44 42 113 26 58 -13 103 7 123 54 12 28 11 36 -6 69 -13
25 -28 40 -47 44 -15 3 -31 7 -37 9 -30 8 -99 -54 -89 -80 6 -16 -26 -29 -39
-16 -6 6 -10 23 -9 40 2 72 -97 110 -147 57z m87 -69 c2 -18 -2 -29 -12 -33
-19 -7 -45 11 -42 29 6 43 49 45 54 4z m225 -11 c8 -21 -16 -48 -36 -40 -17 6
-23 35 -10 47 11 12 41 7 46 -7z"/>
<path d="M3271 3043 c-7 -16 -7 -24 2 -30 20 -13 34 -11 34 3 0 7 -4 11 -8 9
-4 -3 -9 2 -12 10 -4 10 1 14 16 13 37 -1 47 1 47 13 0 8 -5 8 -15 -1 -8 -7
-15 -8 -15 -3 0 18 -39 8 -49 -14z"/>
<path d="M3403 3063 c-10 -3 -10 -7 0 -17 15 -17 38 -9 30 10 -5 15 -10 16
-30 7z"/>
<path d="M3466 3062 c-3 -5 1 -9 9 -9 8 0 12 4 9 9 -3 4 -7 8 -9 8 -2 0 -6 -4
-9 -8z"/>
<path d="M3535 3061 c-2 -5 24 -8 58 -8 34 0 68 -2 76 -4 7 -2 15 2 17 9 1 7
0 8 -3 2 -2 -5 -9 -7 -15 -4 -15 9 -127 13 -133 5z"/>
<path d="M3706 3053 c-6 -16 10 -27 19 -13 5 8 12 7 23 -2 12 -10 14 -10 8 0
-5 8 0 12 14 12 14 0 19 -4 14 -12 -6 -10 -5 -10 8 -1 8 7 18 10 21 6 4 -3 7
0 7 7 0 9 5 7 15 -6 8 -10 15 -14 15 -7 0 6 11 10 23 9 13 -2 24 2 24 8 0 16
-185 15 -191 -1z"/>
<path d="M3830 3010 c8 -5 20 -10 25 -10 6 0 3 5 -5 10 -8 5 -19 10 -25 10 -5
0 -3 -5 5 -10z"/>
<path d="M3320 2966 c-14 -14 -13 -39 2 -54 9 -9 83 -12 270 -12 244 0 258 1
268 19 13 26 4 48 -23 54 -43 10 -507 3 -517 -7z"/>
<path d="M3390 2865 c-9 -11 -10 -22 -3 -38 10 -22 13 -22 194 -21 101 1 189
2 195 3 18 2 25 30 14 52 -10 18 -23 19 -199 19 -157 0 -191 -3 -201 -15z"/>
<path d="M3464 2649 c-32 -11 -40 -57 -16 -82 37 -36 99 0 86 50 -7 26 -43 43
-70 32z"/>
<path d="M3656 2634 c-9 -8 -16 -24 -16 -34 0 -43 54 -65 84 -34 19 18 20 38
6 65 -13 23 -53 25 -74 3z"/>
<path d="M1954 2555 c-4 -21 -10 -32 -17 -28 -6 3 -3 -4 6 -16 8 -13 13 -30
10 -37 -3 -8 -1 -14 3 -15 5 0 18 -2 28 -4 12 -2 26 5 34 16 17 24 47 24 73 0
33 -31 53 -20 60 30 3 24 7 36 7 27 1 -10 6 -18 10 -18 4 0 13 -15 20 -32 l13
-33 14 25 c11 20 11 26 1 32 -8 4 -19 21 -26 37 -11 28 -37 47 -48 36 -3 -3
-5 -28 -3 -55 3 -67 -18 -66 -44 2 -11 28 -26 54 -34 56 -8 3 -11 0 -7 -7 4
-6 4 -11 -1 -11 -4 0 -14 -15 -21 -32 -31 -78 -47 -82 -47 -13 0 25 -4 45 -8
45 -5 0 -6 4 -2 9 3 5 1 12 -4 16 -6 3 -13 -10 -17 -30z m106 -49 c-15 -15
-33 4 -19 20 10 12 14 12 20 2 5 -7 4 -17 -1 -22z"/>
<path d="M2254 2582 c-6 -4 -16 -22 -22 -41 -10 -28 -9 -32 3 -27 11 4 15 -1
15 -17 0 -13 7 -32 15 -43 13 -17 14 -12 14 54 -1 72 -6 87 -25 74z"/>
<path d="M2309 2586 c-2 -2 -2 -33 1 -68 5 -61 20 -81 30 -38 5 21 5 21 29 -4
14 -14 30 -26 37 -26 21 0 63 47 52 58 -6 6 -5 12 2 17 13 8 32 -14 24 -26 -5
-8 47 -52 53 -45 6 6 -49 126 -58 126 -4 0 -19 -25 -33 -55 -14 -30 -30 -55
-36 -55 -18 0 -29 43 -14 58 18 17 18 27 -2 43 -15 12 -76 23 -85 15z m61 -36
c0 -11 -7 -20 -15 -20 -15 0 -21 21 -8 33 12 13 23 7 23 -13z"/>
<path d="M1610 2540 c-11 -22 -17 -40 -13 -40 5 0 1 -4 -7 -10 -8 -5 -11 -13
-6 -17 5 -4 11 -2 13 5 7 20 51 14 67 -10 19 -27 33 -16 18 15 -6 12 -16 39
-23 60 -7 20 -17 37 -21 37 -4 0 -17 -18 -28 -40z m22 -32 c-15 -15 -24 -6
-16 16 5 12 10 14 17 7 8 -8 8 -14 -1 -23z"/>
<path d="M1705 2570 c3 -4 5 -30 6 -58 2 -38 6 -53 18 -56 23 -6 69 -2 78 8 4
4 -7 6 -25 3 -27 -5 -33 -2 -38 18 -3 13 -3 29 1 34 3 6 1 11 -5 11 -6 0 -9 4
-6 9 9 14 -3 38 -19 38 -8 0 -12 -3 -10 -7z"/>
<path d="M2609 2573 c-5 -31 -5 -122 0 -117 3 3 7 18 7 32 1 15 2 34 3 42 1 8
13 -7 26 -35 l24 -49 15 34 c14 35 12 56 -4 31 -6 -11 -13 -5 -27 24 -17 36
-41 57 -44 38z"/>
<path d="M2706 2563 c-8 -24 -6 -38 5 -36 5 2 8 -5 7 -15 -3 -42 3 -58 23 -59
15 -1 18 1 10 10 -5 7 -10 31 -9 54 0 42 -7 63 -22 63 -5 0 -11 -8 -14 -17z"/>
<path d="M2901 2527 c1 -28 4 -57 6 -63 4 -12 58 -13 70 0 5 5 3 6 -4 2 -17
-10 -38 5 -40 27 0 9 -1 30 -2 46 0 16 -8 32 -17 35 -13 5 -15 -2 -13 -47z"/>
<path d="M1885 2560 c-14 -23 -13 -89 1 -101 11 -9 14 -7 14 10 0 12 4 30 8
39 11 21 -12 70 -23 52z"/>
<path d="M2805 2559 c-4 -5 -1 -18 7 -27 8 -9 19 -29 25 -43 6 -14 18 -26 26
-26 14 0 13 7 -4 51 -10 28 -19 52 -19 54 0 7 -30 0 -35 -9z"/>
<path d="M3005 2560 c2 -3 5 -27 6 -53 2 -26 5 -48 8 -48 20 -5 63 -4 66 1 2
3 -6 7 -17 7 -27 2 -29 5 -33 50 -1 21 -3 41 -4 44 -1 3 -8 6 -16 6 -8 0 -12
-3 -10 -7z"/>
<path d="M2781 2501 c-13 -23 -14 -31 -3 -31 13 0 32 39 22 45 -5 3 -14 -3
-19 -14z"/>
</g>
</svg>
